<svg xmlns="http://www.w3.org/2000/svg" xmlns:xlink="http://www.w3.org/1999/xlink" width="300" zoomAndPan="magnify" viewBox="0 0 224.87999 225" height="300" preserveAspectRatio="xMidYMid meet" version="1.0"><defs><clipPath id="45afd016a0"><path d="M 10.015625 0.0585938 L 214.65625 0.0585938 L 214.65625 205 L 10.015625 205 Z M 10.015625 0.0585938 " clip-rule="nonzero"/></clipPath><clipPath id="2256e0e91b"><path d="M 52 148 L 173 148 L 173 224.9375 L 52 224.9375 Z M 52 148 " clip-rule="nonzero"/></clipPath></defs><g clip-path="url(#45afd016a0)"><path fill="#f366ba" d="M 10.070312 102.492188 C 10.070312 159.046875 55.871094 204.890625 112.367188 204.890625 C 168.871094 204.890625 214.667969 159.046875 214.667969 102.492188 C 214.667969 45.9375 168.871094 0.09375 112.367188 0.09375 C 55.867188 0.0898438 10.070312 45.9375 10.070312 102.492188 " fill-opacity="1" fill-rule="nonzero"/></g><path fill="#23255d" d="M 157.296875 75.773438 L 157.296875 174.042969 L 70.292969 174.042969 L 70.292969 79.828125 L 157.296875 75.773438 " fill-opacity="1" fill-rule="nonzero"/><path fill="#23255d" d="M 155.230469 94.25 C 155.230469 94.25 152.421875 118.375 168.058594 118.046875 C 168.058594 118.046875 161.230469 126.523438 155.035156 122.9375 C 148.839844 119.351562 151.84375 98.164062 151.84375 98.164062 L 155.355469 92.621094 " fill-opacity="1" fill-rule="nonzero"/><g clip-path="url(#2256e0e91b)"><path fill="#ffffff" d="M 172.050781 205.171875 C 166.996094 208.953125 161.5625 212.265625 155.824219 215.035156 C 154.949219 215.460938 154.070312 215.863281 153.191406 216.261719 C 140.726562 221.855469 126.914062 224.964844 112.371094 224.964844 C 97.824219 224.964844 84.015625 221.855469 71.554688 216.261719 C 70.664062 215.863281 69.78125 215.460938 68.917969 215.035156 C 63.179688 212.257812 57.746094 208.953125 52.691406 205.171875 C 53.578125 185.375 64.082031 168.085938 79.644531 157.875 C 89.042969 151.699219 100.289062 148.113281 112.371094 148.113281 C 114.214844 148.113281 116.039062 148.199219 117.828125 148.359375 C 127.839844 149.265625 137.128906 152.636719 145.097656 157.875 C 152.261719 162.574219 158.351562 168.777344 162.925781 176.027344 C 168.292969 184.535156 171.566406 194.492188 172.050781 205.171875 " fill-opacity="1" fill-rule="nonzero"/></g><path fill="#fbd5c0" d="M 145.097656 157.875 C 144.183594 164.777344 141.140625 171.019531 136.640625 175.894531 C 130.609375 182.433594 121.972656 186.535156 112.371094 186.535156 C 96.992188 186.535156 84.066406 176.007812 80.402344 161.753906 C 80.074219 160.488281 79.820312 159.191406 79.644531 157.875 C 89.042969 151.699219 100.289062 148.113281 112.371094 148.113281 C 114.214844 148.113281 116.039062 148.191406 117.835938 148.359375 C 118.148438 148.386719 118.460938 148.417969 118.765625 148.453125 C 118.960938 148.472656 119.15625 148.492188 119.347656 148.515625 C 119.5625 148.535156 119.777344 148.570312 119.984375 148.59375 C 120.117188 148.609375 120.253906 148.628906 120.382812 148.648438 C 120.570312 148.667969 120.765625 148.699219 120.960938 148.726562 C 121.113281 148.746094 121.261719 148.773438 121.417969 148.792969 C 121.546875 148.8125 121.679688 148.832031 121.808594 148.855469 C 122.03125 148.890625 122.246094 148.929688 122.464844 148.960938 C 123.417969 149.125 124.363281 149.304688 125.292969 149.515625 L 125.917969 149.652344 C 126.035156 149.683594 126.160156 149.710938 126.277344 149.742188 C 126.5 149.796875 126.726562 149.847656 126.941406 149.90625 C 126.980469 149.914062 127.011719 149.917969 127.039062 149.925781 C 127.320312 149.996094 127.601562 150.070312 127.875 150.148438 C 128.171875 150.21875 128.464844 150.304688 128.753906 150.386719 C 129.085938 150.480469 129.410156 150.578125 129.742188 150.675781 C 129.996094 150.753906 130.25 150.832031 130.503906 150.917969 C 130.667969 150.96875 130.835938 151.019531 130.992188 151.074219 C 131.261719 151.15625 131.527344 151.25 131.789062 151.339844 C 132.113281 151.453125 132.433594 151.5625 132.753906 151.679688 C 132.777344 151.691406 132.796875 151.699219 132.816406 151.707031 C 133.148438 151.824219 133.476562 151.945312 133.800781 152.070312 C 134.042969 152.167969 134.289062 152.261719 134.535156 152.363281 C 135.183594 152.617188 135.8125 152.886719 136.4375 153.160156 L 137.257812 153.53125 C 137.507812 153.640625 137.753906 153.757812 138.003906 153.875 C 138.230469 153.988281 138.453125 154.09375 138.671875 154.203125 C 138.882812 154.300781 139.082031 154.40625 139.285156 154.507812 C 139.414062 154.574219 139.550781 154.640625 139.683594 154.710938 C 140.222656 154.984375 140.75 155.273438 141.273438 155.558594 C 141.460938 155.664062 141.65625 155.773438 141.839844 155.878906 C 141.960938 155.949219 142.078125 156.015625 142.195312 156.082031 L 142.640625 156.339844 L 143.089844 156.617188 L 143.382812 156.792969 C 143.664062 156.953125 143.9375 157.125 144.210938 157.300781 C 144.507812 157.488281 144.800781 157.679688 145.097656 157.875 " fill-opacity="1" fill-rule="nonzero"/><path fill="#fbd5c0" d="M 123.875 134.714844 L 123.875 157.363281 C 123.875 163.097656 119.191406 167.789062 113.472656 167.789062 L 111.269531 167.789062 C 105.550781 167.789062 100.875 163.097656 100.875 157.363281 L 100.875 134.714844 C 100.875 128.984375 105.550781 124.296875 111.269531 124.296875 L 113.472656 124.296875 C 119.191406 124.296875 123.875 128.984375 123.875 134.714844 " fill-opacity="1" fill-rule="nonzero"/><path fill="#f8a29e" d="M 123.875 134.714844 L 123.875 146.699219 C 120.453125 148.601562 116.824219 149.710938 113.144531 149.710938 C 108.800781 149.710938 104.65625 148.496094 100.875 146.390625 L 100.875 134.714844 C 100.875 128.984375 105.550781 124.296875 111.269531 124.296875 L 113.472656 124.296875 C 119.191406 124.296875 123.875 128.984375 123.875 134.714844 " fill-opacity="1" fill-rule="nonzero"/><path fill="#fbd5c0" d="M 147.839844 120.667969 C 147.839844 120.667969 154.652344 118.347656 159.003906 110.746094 C 163.730469 102.492188 160.761719 97.347656 159.824219 96.230469 C 157.261719 93.1875 153.308594 95.144531 152.660156 96.230469 C 152.007812 97.320312 142.574219 114.46875 147.839844 120.667969 " fill-opacity="1" fill-rule="nonzero"/><path fill="#f8a29e" d="M 154.515625 98.9375 C 154.515625 98.9375 158.839844 99.492188 157.320312 105.574219 C 155.796875 111.664062 151.804688 114.070312 146.371094 117.179688 C 140.945312 120.292969 149.089844 100.175781 154.515625 98.9375 " fill-opacity="1" fill-rule="nonzero"/><path fill="#fbd5c0" d="M 78.675781 120.667969 C 78.675781 120.667969 71.859375 118.347656 67.507812 110.746094 C 62.773438 102.492188 65.746094 97.347656 66.683594 96.230469 C 69.242188 93.1875 73.195312 95.144531 73.847656 96.230469 C 74.5 97.320312 83.9375 114.46875 78.675781 120.667969 " fill-opacity="1" fill-rule="nonzero"/><path fill="#f8a29e" d="M 71.992188 98.9375 C 71.992188 98.9375 67.671875 99.492188 69.191406 105.574219 C 70.707031 111.664062 74.707031 114.070312 80.132812 117.179688 C 85.566406 120.292969 77.421875 100.175781 71.992188 98.9375 " fill-opacity="1" fill-rule="nonzero"/><path fill="#fbd5c0" d="M 154.515625 94.921875 C 154.515625 69.929688 136.085938 49.664062 113.347656 49.664062 C 90.613281 49.664062 72.171875 69.929688 72.171875 94.921875 C 72.171875 119.914062 90.613281 146.039062 113.347656 146.039062 C 134.710938 146.039062 154.515625 119.703125 154.515625 94.921875 " fill-opacity="1" fill-rule="nonzero"/><path fill="#23255d" d="M 117.054688 76.671875 C 117.054688 76.671875 124.796875 101.613281 153.929688 99.140625 C 153.929688 99.140625 159.015625 91.777344 157.296875 75.773438 C 155.355469 57.730469 139.390625 42.550781 113.347656 47.984375 C 113.347656 47.984375 110.96875 60.808594 117.054688 76.671875 " fill-opacity="1" fill-rule="nonzero"/><path fill="#23255d" d="M 118.355469 49.664062 C 118.355469 49.664062 119.4375 44.945312 115.53125 41.246094 C 111.621094 37.550781 59.867188 45.140625 72.171875 94.921875 C 72.171875 94.921875 84.238281 65.152344 116.179688 62.542969 L 118.355469 49.664062 " fill-opacity="1" fill-rule="nonzero"/></svg>